<svg width="300" height="68" viewBox="0 0 300 68" fill="none" xmlns="http://www.w3.org/2000/svg">
<path d="M106.396 29.6719C101.484 30.6421 97.3664 31.8112 94.0425 33.1297C92.0581 36.065 89.8505 39.5725 87.4692 43.7018L85.7576 46.7367C85.46 47.2839 84.9887 48.0551 84.3685 49.075C83.674 50.269 82.9546 50.866 82.1857 50.866C81.764 50.866 81.4167 50.6919 81.1439 50.3685C80.871 50.0949 80.7222 49.7715 80.7222 49.4232C80.7222 48.8262 81.5407 47.0849 83.1531 44.2491C84.0461 42.7068 85.3855 40.5177 87.1715 37.7068C87.8661 36.6123 88.4118 35.7416 88.8335 35.0451C87.5436 35.4182 86.3529 35.8411 85.2615 36.3137C84.7406 36.5625 84.3189 36.662 83.9716 36.662C83.55 36.662 83.2027 36.463 82.9546 36.065C82.781 35.8162 82.7066 35.5426 82.7066 35.2192C82.7066 34.4729 82.9546 33.9506 83.4755 33.652C84.3189 33.1297 85.832 32.5326 88.0149 31.861C89.652 31.3386 90.9171 30.866 91.8845 30.4182C92.331 29.8461 93.5216 28.1794 95.4564 25.4431C96.275 24.249 98.6315 21.4132 102.476 16.9605C105.254 13.7018 108.107 10.6669 111.059 7.85598C112.77 6.21418 114.085 5.36841 115.003 5.36841C115.573 5.36841 116.045 5.59229 116.466 6.06493C116.814 6.48781 116.987 6.93558 116.987 7.43309C116.987 8.03011 116.69 9.09976 116.07 10.6172C115.028 13.2789 114.036 16.1396 113.068 19.1993C112.25 21.8859 111.704 23.9505 111.406 25.3933C111.803 25.3933 112.051 25.3933 112.175 25.3684C112.795 25.3436 113.316 25.3436 113.738 25.3436C115.003 25.3436 115.623 25.8162 115.623 26.7864C115.623 27.2092 115.499 27.6073 115.226 28.0053C114.953 28.4033 114.656 28.652 114.308 28.7267C114.184 28.7764 113.812 28.8013 113.242 28.8013C112.001 28.8013 111.084 28.8759 110.488 29.0252C109.967 30.5675 109.149 34.5227 108.008 40.866C107.413 45.07 107.14 47.6571 107.164 48.6272C107.164 50.1944 106.693 50.9655 105.775 50.9655C105.031 50.9655 104.461 50.5924 104.064 49.8212C103.766 49.2988 103.617 48.6023 103.617 47.7068C103.617 44.6968 104.138 40.667 105.205 35.5924C105.726 33.0053 106.147 31.0401 106.396 29.6719ZM107.313 26.1645C107.512 25.5426 108.008 23.851 108.802 21.1147C109 20.3933 109.496 18.9754 110.29 16.8361C111.084 14.647 111.729 12.8809 112.2 11.5625C110.786 12.5077 109.372 13.7266 107.909 15.2689C102.799 20.7913 99.1772 25.2938 97.0936 28.8013C97.8873 28.6023 99.6237 28.1048 102.253 27.3336C103.022 27.1097 104.709 26.7366 107.313 26.1645Z" fill="white"/>
<path d="M117.285 36.9605C119.418 34.672 121.849 32.458 124.627 30.269C125.62 29.4978 126.686 28.7516 127.802 28.0799C128.373 27.7565 128.72 27.5824 128.869 27.5824C129.191 27.5824 129.514 27.8312 129.836 28.3038C130.035 28.5525 130.134 28.8013 130.134 29.0252C130.134 29.4232 129.712 29.9456 128.894 30.6172C126.686 32.3834 125.57 33.7018 125.57 34.5973C125.57 35.0949 125.843 35.3436 126.413 35.3436C127.356 35.3436 128.943 34.5725 131.226 33.0302C131.622 32.7814 131.945 32.6322 132.193 32.6322C132.367 32.6322 132.54 32.7068 132.714 32.8809C132.912 33.0799 133.011 33.2789 133.011 33.5028C133.011 34.1496 132.094 35.1446 130.283 36.5128C128.373 37.9556 126.562 38.6521 124.851 38.6521C124.156 38.6521 123.511 38.4779 122.941 38.1048C122.444 37.8063 122.196 37.259 122.196 36.463C122.196 35.9158 122.42 35.2939 122.891 34.5973C121.179 35.8162 119.17 37.9058 116.838 40.866C115.499 42.6819 114.16 44.9456 112.845 47.6073C112.349 48.6023 111.729 49.0999 110.984 49.0999C110.191 49.0999 109.794 48.7267 109.794 47.9556C109.794 47.2093 110.414 45.2441 111.679 42.0352C113.539 37.259 115.499 33.5526 117.533 30.9157C118.798 29.2739 119.84 28.4779 120.683 28.4779C120.956 28.4779 121.229 28.5525 121.452 28.7267C121.725 28.9506 121.874 29.2242 121.874 29.5476C121.874 29.871 121.651 30.3187 121.229 30.9157C121.155 31.0152 120.559 31.7615 119.517 33.1048C118.55 34.4232 117.806 35.6919 117.285 36.9605Z" fill="white"/>
<path d="M141.941 26.6868C140.527 28.8759 139.238 31.3386 138.047 34.05C136.335 37.9306 135.467 40.8162 135.467 42.7316C135.467 43.2789 135.591 43.6769 135.814 43.9754C136.038 44.249 136.385 44.3983 136.831 44.3983C137.923 44.3983 139.238 43.3784 140.775 41.3386C141.743 40.0699 142.611 38.8261 143.38 37.5575C143.802 36.8361 144.248 36.4878 144.719 36.4878C144.992 36.4878 145.24 36.5873 145.439 36.7863C145.612 36.9853 145.687 37.1844 145.687 37.3834C145.687 38.1794 144.645 39.9704 142.537 42.7565C140.031 46.1147 137.724 47.7814 135.641 47.7814C134.525 47.7814 133.607 47.259 132.887 46.2391C132.441 45.5923 132.193 44.6719 132.193 43.4779C132.193 40.8411 132.962 37.7814 134.475 34.2739C134.847 33.4033 135.864 31.3137 137.526 27.9804C136.931 28.1296 136.484 28.2042 136.187 28.2042C135.74 28.2042 135.318 28.1047 134.996 27.8809C134.525 27.5823 134.277 27.1843 134.277 26.7366C134.277 26.1893 134.599 25.7664 135.219 25.443C135.393 25.3684 136.187 25.2192 137.625 25.0202C138.146 24.9455 138.915 24.7216 139.907 24.3983C140.676 23.0301 141.892 21.1644 143.603 18.8261C144.546 17.5326 145.216 16.6868 145.588 16.2888C146.109 15.7415 146.555 15.4679 146.952 15.4679C147.225 15.4679 147.522 15.6171 147.795 15.9157C148.043 16.1893 148.192 16.4878 148.192 16.7614C148.192 17.3336 147.597 18.453 146.381 20.1196C145.588 21.2142 144.992 22.0848 144.595 22.7565C147.002 22.1097 148.713 21.7863 149.755 21.7863C150.946 21.7863 151.541 22.2838 151.541 23.2789C151.541 23.7764 151.342 24.1495 150.921 24.3983C150.698 24.5226 150.152 24.647 149.234 24.7216C148.862 24.6968 147.225 25.1197 144.323 25.9654C143.504 26.1644 142.71 26.4132 141.941 26.6868Z" fill="white"/>
<path d="M172.7 28.6271C174.858 24.0749 176.917 20.1196 178.851 16.7614C180.712 13.5027 181.977 11.438 182.647 10.5923C183.391 9.64698 184.085 9.19922 184.73 9.19922C185.078 9.19922 185.4 9.34847 185.673 9.6221C185.921 9.89574 186.07 10.2191 186.07 10.5425C186.07 11.04 185.698 11.8858 184.953 13.0549C181.803 18.1296 178.926 23.3037 176.296 28.5276C173.27 34.6222 171.757 39.1993 171.757 42.259C171.757 43.5028 172.005 44.4729 172.476 45.1943C172.551 45.3436 172.948 45.6918 173.642 46.2391C173.766 46.3386 173.841 46.5625 173.841 46.8859C173.841 47.3087 173.667 47.7068 173.345 48.0799C172.997 48.4282 172.625 48.6272 172.228 48.6272C171.732 48.6272 171.187 48.3286 170.566 47.7068C169.698 46.8361 169.177 45.8411 169.004 44.6968C168.929 44.2242 168.855 43.3286 168.781 42.0351C166.498 46.1396 164.34 48.2043 162.282 48.2043C161.091 48.2043 160.148 47.5326 159.429 46.1893C158.958 45.2938 158.71 44.2988 158.71 43.1545C158.71 39.7714 159.95 36.3634 162.406 32.9306C164.861 29.5475 167.491 27.856 170.294 27.856C171.087 27.8311 171.881 28.1047 172.7 28.6271ZM171.608 31.3137C171.013 30.9157 170.517 30.7167 170.07 30.7167C168.26 30.7167 166.523 31.8361 164.911 34.0749C162.778 36.9853 161.686 39.7963 161.686 42.5077C161.686 42.8311 161.761 43.1296 161.885 43.4281C162.133 43.9754 162.53 44.249 163.051 44.249C163.819 44.249 164.737 43.5028 165.804 42.0351C167.267 40.0699 168.607 37.7565 169.822 35.0948C170.244 34.1744 170.69 33.2789 171.087 32.3585L171.385 31.7366L171.608 31.3137Z" fill="white"/>
<path d="M177.859 41.4132V42.0102C177.859 42.4829 177.983 42.9058 178.207 43.254C178.752 44.05 179.645 44.4481 180.861 44.4481C183.564 44.4481 186.69 42.3585 190.262 38.1794C190.882 37.458 191.428 37.1097 191.849 37.1097C192.097 37.1097 192.296 37.2341 192.494 37.458C192.618 37.6321 192.693 37.8063 192.693 37.9555C192.693 38.8013 191.651 40.2441 189.567 42.259C187.93 43.851 186.219 45.1446 184.358 46.1396C182.523 47.1346 180.811 47.6321 179.224 47.6321C177.586 47.6321 176.321 47.06 175.379 45.9406C174.759 45.1695 174.436 44.0998 174.436 42.7565C174.436 39.0749 176.148 35.4928 179.596 31.9605C182.399 29.0998 184.83 27.657 186.913 27.657C187.484 27.657 187.98 27.8311 188.451 28.1794C189.022 28.6271 189.294 29.2241 189.294 29.9704C189.294 31.1147 188.774 32.5326 187.707 34.1993C185.574 37.6819 182.275 40.0948 177.859 41.4132ZM178.579 38.8759C180.092 38.3535 181.282 37.7565 182.151 37.1097C183.664 35.9406 184.879 34.6222 185.747 33.1296C186.07 32.6072 186.243 32.1346 186.243 31.7366C186.243 31.3137 186.045 31.0898 185.623 31.0898C185.053 31.0898 184.259 31.5127 183.217 32.3585C181.382 33.851 179.819 36.0152 178.579 38.8759Z" fill="white"/>
<path d="M223.352 42.7317C221.888 43.7516 220.698 44.5227 219.805 45.0203C217.771 46.1894 216.01 46.7864 214.496 46.7864C212.735 46.7864 211.297 45.9158 210.131 44.1994C209.312 42.9556 208.891 41.5377 208.891 39.9207C208.891 35.4431 210.85 30.2192 214.745 24.274C218.366 18.7764 222.558 14.05 227.321 10.0699C231.265 6.81123 234.613 5.16943 237.392 5.16943C238.806 5.16943 239.947 5.76645 240.84 6.96048C241.509 7.88088 241.857 8.95054 241.857 10.1943C241.857 13.9754 240.021 17.9058 236.325 21.9605C233.497 25.07 231.364 26.6123 229.925 26.6123C229.603 26.6123 229.28 26.4879 228.958 26.2143C228.611 25.9157 228.437 25.5426 228.437 25.1446C228.437 24.5973 228.908 23.9506 229.876 23.1545C232.331 21.1894 234.316 19.1496 235.854 17.0849C238.26 13.9008 239.45 11.3635 239.45 9.4978C239.45 9.00029 239.277 8.60228 238.905 8.30377C238.557 8.03014 238.136 7.88088 237.64 7.88088C236.499 7.88088 234.961 8.55253 233.026 9.89581C229.007 12.7316 225.014 16.7366 221.095 21.861C218.565 25.1943 216.456 28.6272 214.745 32.1595C213.281 35.269 212.537 37.8063 212.537 39.7964C212.537 40.5675 212.785 41.3138 213.281 42.0103C213.951 42.9556 214.819 43.4033 215.91 43.4033C217.448 43.4033 219.333 42.5824 221.591 40.9655C224.419 38.9257 226.428 37.2839 227.643 36.0401C228.66 34.9954 229.429 34.473 229.95 34.473C230.322 34.473 230.62 34.6222 230.868 34.8959C231.166 35.269 231.314 35.7168 231.314 36.264C231.314 36.861 230.942 37.6819 230.198 38.677C229.429 39.672 228.263 41.5377 226.676 44.2491C224.865 47.3586 223.178 50.7168 221.64 54.3486C220.276 57.5327 219.458 59.6969 219.16 60.8412C218.912 61.7865 218.639 62.483 218.341 62.9059C218.019 63.3288 217.523 63.5526 216.853 63.5526C216.282 63.5526 215.861 63.3536 215.563 62.9556C215.315 62.6074 215.166 62.1845 215.166 61.7118C215.166 59.871 216.233 56.6621 218.391 52.1347C218.738 51.4133 219.83 49.3238 221.665 45.866C222.062 45.1944 222.633 44.1247 223.352 42.7317Z" fill="white"/>
<path d="M237.764 36.9605C239.897 34.672 242.328 32.458 245.106 30.269C246.098 29.4978 247.165 28.7516 248.281 28.0799C248.852 27.7565 249.199 27.5824 249.348 27.5824C249.67 27.5824 249.993 27.8312 250.315 28.3038C250.514 28.5525 250.613 28.8013 250.613 29.0252C250.613 29.4232 250.191 29.9456 249.373 30.6172C247.165 32.3834 246.049 33.7018 246.049 34.5973C246.049 35.0949 246.322 35.3436 246.892 35.3436C247.835 35.3436 249.422 34.5725 251.704 33.0302C252.101 32.7814 252.424 32.6322 252.672 32.6322C252.845 32.6322 253.019 32.7068 253.193 32.8809C253.391 33.0799 253.49 33.2789 253.49 33.5028C253.49 34.1496 252.572 35.1446 250.762 36.5128C248.852 37.9556 247.041 38.6521 245.329 38.6521C244.635 38.6521 243.99 38.4779 243.419 38.1048C242.923 37.8063 242.675 37.259 242.675 36.463C242.675 35.9158 242.898 35.2939 243.37 34.5973C241.658 35.8162 239.649 37.9058 237.317 40.866C235.978 42.6819 234.638 44.9456 233.324 47.6073C232.828 48.6023 232.207 49.0999 231.463 49.0999C230.669 49.0999 230.273 48.7267 230.273 47.9556C230.273 47.2093 230.893 45.2441 232.158 42.0352C234.018 37.259 235.978 33.5526 238.012 30.9157C239.277 29.2739 240.319 28.4779 241.162 28.4779C241.435 28.4779 241.708 28.5525 241.931 28.7267C242.204 28.9506 242.353 29.2242 242.353 29.5476C242.353 29.871 242.129 30.3187 241.708 30.9157C241.609 31.0152 241.038 31.7615 239.996 33.1048C239.029 34.4232 238.285 35.6919 237.764 36.9605Z" fill="white"/>
<path d="M260.088 42.2839C259.369 43.5526 258.675 44.5973 257.98 45.468C256.616 47.1595 255.251 48.0053 253.912 48.0053C252.746 48.0053 251.828 47.458 251.183 46.3386C250.762 45.6172 250.563 44.7715 250.563 43.8013C250.563 41.3884 251.332 38.7267 252.845 35.8162C254.532 32.5824 256.566 30.0948 258.947 28.3535C260.51 27.2341 262.023 26.662 263.462 26.662C264.38 26.662 265.124 26.9356 265.744 27.5078C266.265 28.0053 266.513 28.5774 266.513 29.1993C266.513 29.6719 266.339 30.3436 265.967 31.1894C266.29 31.6371 266.463 32.06 266.463 32.3834C266.463 32.8312 266.166 33.5774 265.546 34.6222C264.925 35.6919 264.281 37.1098 263.66 38.8511C262.991 40.7167 262.643 42.2093 262.643 43.3536C262.643 44.274 262.916 45.0202 263.462 45.5924C263.611 45.7416 264.057 45.9904 264.801 46.3386C265.347 46.5874 265.62 47.06 265.62 47.7068C265.62 48.1297 265.471 48.4531 265.174 48.7267C264.851 49.0003 264.479 49.1496 264.032 49.1496C262.867 49.1496 261.85 48.6272 261.006 47.5824C260.312 46.7367 259.964 45.667 259.964 44.3983C259.94 44.0003 259.989 43.3038 260.088 42.2839ZM264.132 31.5625C263.884 31.0899 263.586 30.7416 263.288 30.4928C262.991 30.269 262.668 30.1446 262.321 30.1446C260.684 30.1446 258.898 31.5874 256.963 34.4729C254.83 37.657 253.788 40.3685 253.788 42.5824C253.788 43.1297 253.887 43.5277 254.086 43.8262C254.284 44.0998 254.606 44.2491 255.003 44.2491C256.045 44.2491 257.261 43.1297 258.65 40.9157C259.419 39.6968 260.386 37.9058 261.552 35.5426C262.321 34.0003 262.867 32.9804 263.214 32.4829C263.363 32.259 263.685 31.9356 264.132 31.5625Z" fill="white"/>
<path d="M277.849 27.458C279.561 27.458 280.429 28.3535 280.429 30.1695C280.429 31.7615 279.809 33.3535 278.568 34.9705C277.626 36.1894 276.782 36.7864 276.063 36.7864C275.468 36.7864 275.145 36.4381 275.145 35.7416C275.145 35.3685 275.22 35.07 275.393 34.871C275.468 34.7963 275.716 34.5227 276.162 34.1247C276.559 33.7516 276.956 33.2043 277.353 32.458C277.626 31.9605 277.775 31.5625 277.775 31.264C277.775 30.9157 277.576 30.7416 277.179 30.7416C276.733 30.7416 276.038 31.0899 275.096 31.8112C273.632 32.9555 272.144 34.7715 270.68 37.2341C269.167 39.7963 268.398 41.8113 268.398 43.3038C268.398 43.7764 268.547 44.1993 268.82 44.5725C269.242 45.1446 269.787 45.4182 270.482 45.4182C271.846 45.4182 273.458 44.5725 275.319 42.8809C276.906 41.4133 278.221 39.9705 279.312 38.5028C279.883 37.7068 280.354 37.3088 280.776 37.3088C281.024 37.3088 281.222 37.4083 281.421 37.6322C281.595 37.856 281.669 38.055 281.669 38.2789C281.669 39.0749 280.627 40.6421 278.593 42.9804C275.319 46.6371 272.342 48.4531 269.688 48.4531C268.076 48.4531 266.86 47.8809 266.017 46.7367C265.422 45.8909 265.099 44.8959 265.099 43.7267C265.099 41.463 266.042 38.8511 267.902 35.866C269.713 33.0302 271.772 30.7167 274.153 29.0003C275.592 27.9555 276.807 27.458 277.849 27.458Z" fill="white"/>
<path d="M285.167 41.4132V42.0102C285.167 42.4829 285.291 42.9058 285.514 43.254C286.06 44.05 286.952 44.4481 288.168 44.4481C290.872 44.4481 293.997 42.3585 297.569 38.1794C298.189 37.458 298.735 37.1097 299.157 37.1097C299.405 37.1097 299.603 37.2341 299.802 37.458C299.926 37.6321 300 37.8063 300 37.9555C300 38.8013 298.958 40.2441 296.875 42.259C295.237 43.851 293.526 45.1446 291.665 46.1396C289.83 47.1346 288.118 47.6321 286.531 47.6321C284.894 47.6321 283.629 47.06 282.686 45.9406C282.066 45.1695 281.743 44.0998 281.743 42.7565C281.743 39.0749 283.455 35.4928 286.903 31.9605C289.706 29.0998 292.137 27.657 294.22 27.657C294.791 27.657 295.287 27.8311 295.758 28.1794C296.329 28.6271 296.602 29.2241 296.602 29.9704C296.602 31.1147 296.081 32.5326 295.014 34.1993C292.856 37.6819 289.557 40.0948 285.167 41.4132ZM285.861 38.8759C287.374 38.3535 288.565 37.7565 289.433 37.1097C290.946 35.9406 292.162 34.6222 293.03 33.1296C293.352 32.6072 293.526 32.1346 293.526 31.7366C293.526 31.3137 293.327 31.0898 292.906 31.0898C292.335 31.0898 291.541 31.5127 290.5 32.3585C288.664 33.851 287.101 36.0152 285.861 38.8759Z" fill="white"/>
<path d="M13.8107 59.6145L39.7879 32.2761L43.1998 35.6977L15.6348 61.2406L13.8107 59.6145Z" fill="white"/>
<path d="M43.8754 35.1896L40.396 31.7342L48.5709 23.0957L52.6246 27.1948L43.8754 35.1896Z" fill="white"/>
<path d="M53.0975 26.4156L49.4492 22.8585C49.4492 22.8585 49.4492 17.4044 60.9684 14.7959C60.9684 14.7959 59.4821 23.9087 53.0975 26.4156Z" fill="white"/>
<path d="M54.5501 62.1554L58.9416 57.7175L41.8824 40.6099L37.1869 44.8783L54.5501 62.1554Z" fill="white"/>
<path d="M30.87 38.5433L35.329 34.0377L26.242 24.9249L21.5465 29.6338L30.87 38.5433Z" fill="white"/>
<path d="M13.1351 36.714L14.7566 35.054L2.76445 23.0278L1.17676 24.6539L13.1351 36.714Z" fill="white"/>
<path d="M31.4442 18.3529L33.0656 16.6929L21.0735 4.66675L19.4858 6.25895L31.4442 18.3529Z" fill="white"/>
<path d="M15.2633 33.5634L4.58862 22.8923L19.5872 7.85107L30.2281 18.5222L15.2633 33.5634Z" fill="white"/>
<path d="M31.6806 22.8583L37.6598 16.8622L22.7288 1.92261C22.7288 1.92261 41.9499 -5.69962 57.0161 9.40934L37.626 28.8545L31.6806 22.8583Z" fill="white"/>
<path d="M20.0263 34.5796L13.1013 41.5243L0.399804 28.7867C0.399804 28.7867 -2.91069 45.0814 9.52056 57.548L26.242 40.7791L20.0263 34.5796Z" fill="white"/>
<path d="M19.4858 64.696L34.0453 50.0952L48.5371 64.6283C48.5371 64.6622 34.3493 72.0134 19.4858 64.696Z" fill="white"/>
<path d="M62.0494 52.6697L47.1859 37.764L64.8869 20.7241C64.8869 20.7241 72.6227 37.1881 62.0494 52.6697Z" fill="white"/>
</svg>
