<svg width="20" height="20" viewBox="0 0 20 20" fill="none" xmlns="http://www.w3.org/2000/svg">
<path d="M10 20C4.50382 20 0 15.4962 0 10C0 4.50382 4.50382 0 10 0C15.4962 0 20 4.50382 20 10C20 15.4962 15.4962 20 10 20ZM10 0.763359C4.8855 0.763359 0.763359 4.8855 0.763359 10C0.763359 15.1145 4.8855 19.2366 10 19.2366C15.1145 19.2366 19.2366 15.1145 19.2366 10C19.2366 4.8855 15.0382 0.763359 10 0.763359Z" fill="black"/>
<path d="M10.0764 1.0687H9.4657V2.44274H10.0764V1.0687Z" fill="black"/>
<path d="M10.0764 17.4809H9.4657V18.8549H10.0764V17.4809Z" fill="black"/>
<path d="M18.855 9.69464H17.481V10.3053H18.855V9.69464Z" fill="black"/>
<path d="M2.44277 9.69464H1.06873V10.3053H2.44277V9.69464Z" fill="black"/>
<path d="M3.73846 3.59101L3.30664 4.02283L4.27823 4.99442L4.71005 4.5626L3.73846 3.59101Z" fill="black"/>
<path d="M15.3436 15.1886L14.9117 15.6204L15.8833 16.592L16.3151 16.1602L15.3436 15.1886Z" fill="black"/>
<path d="M15.4962 4.88549L15.1145 4.50381L16.1069 3.51144L16.4885 3.89312L15.4962 4.88549Z" fill="black"/>
<path d="M3.89315 16.4885L3.51147 16.1069L4.50384 15.1145L4.88552 15.4962L3.89315 16.4885Z" fill="black"/>
<path d="M10.5344 11.9847L4.65649 6.03054L5.7252 4.96184L9.00764 8.24428V4.42749H10.5344V11.9847Z" fill="black"/>
</svg>
