<svg width="40" height="40" viewBox="0 0 40 40" fill="none" xmlns="http://www.w3.org/2000/svg">
<path d="M20 40C9.00763 40 0 30.9924 0 20C0 9.00763 9.00763 0 20 0C30.9924 0 40 9.00763 40 20C40 30.9924 30.9924 40 20 40ZM20 1.52672C9.77099 1.52672 1.52672 9.77099 1.52672 20C1.52672 30.229 9.77099 38.4733 20 38.4733C30.229 38.4733 38.4733 30.229 38.4733 20C38.4733 9.77099 30.0763 1.52672 20 1.52672Z" fill="black"/>
<path d="M15.5725 14.0458L19.9999 18.4733L24.2747 14.1985L25.8015 15.7252L21.5267 19.8473L25.9541 24.2748L24.4274 25.8015L19.8473 21.5267L15.5725 25.8015L14.0457 24.2748L18.3205 20L13.8931 15.5725L15.5725 14.0458Z" fill="black"/>
</svg>
