<svg width="30" height="30" viewBox="0 0 30 30" fill="none" xmlns="http://www.w3.org/2000/svg">
<path d="M15 30C6.7 30 0 23.3 0 15C0 6.7 6.7 0 15 0C23.3 0 30 6.7 30 15C30 23.3 23.3 30 15 30ZM15 1.5C7.6 1.5 1.5 7.6 1.5 15C1.5 22.4 7.5 28.5 15 28.5C22.5 28.5 28.5 22.5 28.5 15C28.5 7.5 22.4 1.5 15 1.5Z" fill="black"/>
<path d="M15 15C17.2644 15 19.1 13.1644 19.1 10.9C19.1 8.63562 17.2644 6.79999 15 6.79999C12.7357 6.79999 10.9 8.63562 10.9 10.9C10.9 13.1644 12.7357 15 15 15Z" fill="black"/>
<path d="M16.5 16.3H13.5C10.1 16.3 7.40002 19 7.40002 22.4V27C9.60002 28.4 12.2 29.2 15 29.2C17.8 29.2 20.4 28.4 22.6 27V22.4C22.6 19.1 19.9 16.3 16.5 16.3Z" fill="black"/>
</svg>
