<svg width="25" height="25" viewBox="0 0 25 25" fill="none" xmlns="http://www.w3.org/2000/svg">
<path d="M12.4 24.8C19.2483 24.8 24.8 19.2483 24.8 12.4C24.8 5.55167 19.2483 0 12.4 0C5.55167 0 0 5.55167 0 12.4C0 19.2483 5.55167 24.8 12.4 24.8Z" fill="white"/>
<path fill-rule="evenodd" clip-rule="evenodd" d="M14 7.80005C14.4 7.80005 14.9 7.80005 15.3 7.80005C15.4 7.80005 15.4 7.80005 15.5 7.80005V5.40005C15.3 5.40005 15 5.30005 14.8 5.30005C14.3 5.30005 13.9 5.30005 13.4 5.30005C12.7 5.30005 12 5.50005 11.4 5.90005C10.7 6.40005 10.4 7.10005 10.2 7.90005C10.1 8.20005 10.1 8.60005 10.1 8.90005C10.1 9.40005 10.1 9.90005 10.1 10.5V10.7H7.90002V13.3H10.1V19.9H12.8V13.3H15C15.1 12.4 15.2 11.6 15.3 10.7C15.1 10.7 15 10.7 14.8 10.7C14.2 10.7 12.7 10.7 12.7 10.7C12.7 10.7 12.7 9.40005 12.7 8.80005C12.9 8.00005 13.3 7.80005 14 7.80005Z" fill="black"/>
</svg>
