<svg width="20" height="20" viewBox="0 0 20 20" fill="none" xmlns="http://www.w3.org/2000/svg">
<path d="M10 20C4.50382 20 0 15.4962 0 10C0 4.50382 4.50382 0 10 0C15.4962 0 20 4.50382 20 10C20 15.4962 15.4962 20 10 20ZM10 0.763359C4.8855 0.763359 0.763359 4.8855 0.763359 10C0.763359 15.1145 4.8855 19.2366 10 19.2366C15.1145 19.2366 19.2366 15.1145 19.2366 10C19.2366 4.8855 15.0382 0.763359 10 0.763359Z" fill="black"/>
<path d="M10.916 5.41981C10.916 5.95417 10.5343 6.33585 9.92366 6.33585C9.38931 6.33585 9.00763 5.95417 9.00763 5.41981C9.00763 4.88546 9.38931 4.50378 9.92366 4.50378C10.5343 4.50378 10.916 4.9618 10.916 5.41981ZM9.1603 14.0458V7.32821H10.8397V14.0458H9.1603Z" fill="black"/>
</svg>
