<svg width="50" height="44" viewBox="0 0 50 44" fill="none" xmlns="http://www.w3.org/2000/svg">
<path d="M19.1329 24.7453C22.0211 24.7453 24.3625 22.4039 24.3625 19.5157C24.3625 16.6275 22.0211 14.2861 19.1329 14.2861C16.2447 14.2861 13.9033 16.6275 13.9033 19.5157C13.9033 22.4039 16.2447 24.7453 19.1329 24.7453Z" fill="#F27900"/>
<path d="M21.0461 26.2764H17.2196C12.8828 26.2764 9.43896 29.7202 9.43896 34.057V39.9243C12.2451 41.71 15.5614 42.7304 19.1328 42.7304C22.7043 42.7304 26.0206 41.71 28.8267 39.9243V34.057C28.8267 29.8478 25.3828 26.2764 21.0461 26.2764Z" fill="#F27900"/>
<path d="M36.0969 9.43878H48.7245L50 0L45.6632 4.20918L42.602 1.14796L39.2857 4.59184L34.6938 0L36.0969 9.43878Z" fill="#F27900"/>
<path d="M19.1327 7.52519C9.69388 7.52519 1.91327 15.1783 1.91327 24.7446C1.91327 34.3109 9.56633 41.964 19.1327 41.964C28.699 41.964 36.352 34.3109 36.352 24.7446C36.352 15.1783 28.5714 7.52519 19.1327 7.52519ZM19.1327 43.7497C8.54592 43.7497 0 35.2038 0 24.617C0 14.0303 8.54592 5.48438 19.1327 5.48438C29.7194 5.48438 38.2653 14.0303 38.2653 24.617C38.2653 35.2038 29.7194 43.7497 19.1327 43.7497Z" fill="#F27900"/>
</svg>
