<svg width="20" height="20" viewBox="0 0 20 20" fill="none" xmlns="http://www.w3.org/2000/svg">
<path d="M10 20C4.50382 20 0 15.4962 0 10C0 4.50382 4.50382 0 10 0C15.4962 0 20 4.50382 20 10C20 15.4962 15.4962 20 10 20ZM10 0.763359C4.8855 0.763359 0.763359 4.8855 0.763359 10C0.763359 15.1145 4.8855 19.2366 10 19.2366C15.1145 19.2366 19.2366 15.1145 19.2366 10C19.2366 4.8855 15.0382 0.763359 10 0.763359Z" fill="black"/>
<path d="M10.5344 6.33588V9.46565H13.5115V10.5343H10.5344V13.6641H9.38933V10.5343H6.41223V9.46565H9.38933V6.33588H10.5344Z" fill="black"/>
</svg>
