<svg width="20" height="20" viewBox="0 0 20 20" fill="none" xmlns="http://www.w3.org/2000/svg">
<path d="M10.4973 3.20458H19.5581C19.8896 3.20458 20.1106 2.98359 20.1106 2.6521C20.1106 2.3206 19.8896 2.09961 19.5581 2.09961H10.4973C10.1658 2.09961 9.94482 2.4311 9.94482 2.6521C9.94482 2.87309 10.1658 3.20458 10.4973 3.20458Z" fill="#8F8F8F"/>
<path d="M0.552486 3.20442H3.8674C4.0884 4.41989 5.19337 5.41436 6.51934 5.41436C7.9558 5.41436 9.17127 4.19889 9.17127 2.76243C9.17127 1.32597 7.9558 0 6.51934 0C5.19337 0 4.0884 0.883978 3.8674 2.09945H0.552486C0.220994 2.09945 0 2.43094 0 2.65193C0 2.87293 0.220994 3.20442 0.552486 3.20442ZM6.51934 1.10497C7.40332 1.10497 8.0663 1.76796 8.0663 2.65193C8.0663 3.53591 7.29282 4.30939 6.51934 4.30939C5.63536 4.30939 4.97238 3.64641 4.97238 2.76243C4.97238 1.87845 5.63536 1.10497 6.51934 1.10497Z" fill="#8F8F8F"/>
<path d="M19.4476 15.9111H10.4973C10.1658 15.9111 9.94482 16.1321 9.94482 16.4636C9.94482 16.7951 10.1658 17.0161 10.4973 17.0161H19.5581C19.8896 17.0161 20.1106 16.7951 20.1106 16.4636C20.1106 16.1321 19.7791 15.9111 19.4476 15.9111Z" fill="#8F8F8F"/>
<path d="M6.51934 13.8125C5.19337 13.8125 4.0884 14.6965 3.8674 15.9119H0.552486C0.220994 15.9119 0 16.1329 0 16.4644C0 16.7959 0.220994 17.0169 0.552486 17.0169H3.8674C4.0884 18.2324 5.19337 19.1164 6.51934 19.1164C7.9558 19.1164 9.17127 17.9009 9.17127 16.4644C9.17127 15.028 7.9558 13.8125 6.51934 13.8125ZM6.51934 18.1219C5.63536 18.1219 4.97238 17.4589 4.97238 16.5749C4.97238 15.691 5.63536 15.028 6.51934 15.028C7.40332 15.028 8.0663 15.691 8.0663 16.5749C8.0663 17.3484 7.29282 18.1219 6.51934 18.1219Z" fill="#8F8F8F"/>
<path d="M10.1657 9.61303C10.1657 9.28154 9.94475 9.06055 9.61326 9.06055H0.552486C0.220994 9.06055 0 9.28154 0 9.61303C0 9.94453 0.220994 10.1655 0.552486 10.1655H9.61326C9.94475 10.1655 10.1657 9.94453 10.1657 9.61303Z" fill="#8F8F8F"/>
<path d="M19.4474 9.06038H16.1325C15.9115 7.84491 14.8065 6.96094 13.4805 6.96094C12.0441 6.96094 10.8286 8.17641 10.8286 9.61287C10.8286 11.0493 12.0441 12.2648 13.4805 12.2648C14.8065 12.2648 15.9115 11.3808 16.1325 10.1654H19.4474C19.7789 10.1654 19.9999 9.94436 19.9999 9.61287C19.9999 9.28138 19.7789 9.06038 19.4474 9.06038ZM13.591 11.1598C12.7071 11.1598 12.0441 10.4968 12.0441 9.61287C12.0441 8.72889 12.7071 8.06591 13.591 8.06591C14.475 8.06591 15.138 8.72889 15.138 9.61287C15.138 10.4968 14.475 11.1598 13.591 11.1598Z" fill="#8F8F8F"/>
</svg>
