<svg width="40" height="40" viewBox="0 0 40 40" fill="none" xmlns="http://www.w3.org/2000/svg">
<rect width="40" height="40" fill="black"/>
<g clip-path="url(#clip0_1009_326)">
<path d="M21.6 19.92L31.52 10.08C32 9.59996 32 8.79996 31.52 8.31996C31.04 7.83996 30.32 7.83996 29.84 8.31996L19.92 18.24L10.08 8.31996C9.59996 7.91996 8.79996 7.91996 8.31996 8.31996C7.83996 8.71996 7.83996 9.51996 8.31996 9.99996L18.24 19.92L8.31996 29.84C7.83996 30.32 7.83996 31.04 8.31996 31.52C8.55996 31.76 8.87996 31.84 9.19996 31.84C9.51996 31.84 9.83996 31.76 10.08 31.52L19.92 21.6L29.84 31.52C30.08 31.76 30.4 31.84 30.72 31.84C31.04 31.84 31.36 31.76 31.6 31.52C32.08 31.04 32.08 30.32 31.6 29.84L21.6 19.92Z" fill="white"/>
</g>
<defs>
<clipPath id="clip0_1009_326">
<rect width="23.84" height="23.84" fill="white" transform="translate(8 8)"/>
</clipPath>
</defs>
</svg>
