<svg width="50" height="50" viewBox="0 0 50 50" fill="none" xmlns="http://www.w3.org/2000/svg">
<rect width="50" height="50" rx="5" fill="black"/>
<g clip-path="url(#clip0_412_137)">
<path d="M39.8002 11.1C39.8002 11.1 39.8002 11 39.8002 11.1C39.7002 10.9 39.7002 10.8 39.6002 10.7C39.5002 10.6 39.4002 10.5 39.3002 10.4C39.3002 10.4 39.3002 10.4 39.2002 10.3C39.1002 10.2 39.0002 10.1 38.9002 10.1C38.8002 10.1 38.7002 10 38.5002 10H38.4002H38.3002H11.5002C10.7002 10 10.0002 10.7 10.0002 11.5C10.0002 12.3 10.7002 13 11.5002 13H34.7002L10.4002 37.3C9.8002 37.9 9.8002 38.8 10.4002 39.4C10.7002 39.7 11.1002 39.8 11.5002 39.8C11.9002 39.8 12.3002 39.7 12.6002 39.4L36.8002 15.1V38.3C36.8002 39.1 37.5002 39.8 38.3002 39.8C39.1002 39.8 39.8002 39.1 39.8002 38.3V11.5C39.8002 11.4 39.8002 11.2 39.8002 11.1Z" fill="white"/>
</g>
<defs>
<clipPath id="clip0_412_137">
<rect width="29.8" height="29.8" fill="white" transform="translate(10 10)"/>
</clipPath>
</defs>
</svg>
