<svg width="552" height="352" viewBox="0 0 552 352" fill="none" xmlns="http://www.w3.org/2000/svg">
<path d="M64.5633 266.522C52.2121 268.962 41.857 271.902 33.4981 275.217C28.5077 282.599 22.9558 291.42 16.9674 301.804L12.6631 309.436C11.9146 310.812 10.7294 312.752 9.16986 315.317C7.42322 318.319 5.6142 319.821 3.68042 319.821C2.61996 319.821 1.74664 319.383 1.06046 318.57C0.374278 317.881 0 317.068 0 316.192C0 314.691 2.05854 310.312 6.11324 303.181C8.35892 299.302 11.7274 293.797 16.2188 286.728C17.9654 283.975 19.3378 281.786 20.3983 280.034C17.1545 280.973 14.1603 282.036 11.4155 283.225C10.1056 283.85 9.0451 284.101 8.17178 284.101C7.11132 284.101 6.238 283.6 5.6142 282.599C5.17754 281.974 4.9904 281.285 4.9904 280.472C4.9904 278.595 5.6142 277.282 6.92418 276.531C9.0451 275.217 12.8503 273.716 18.3397 272.027C22.4568 270.713 25.6382 269.525 28.071 268.399C29.1938 266.96 32.1881 262.768 37.0537 255.887C39.1123 252.884 45.0384 245.753 54.7073 234.555C61.6938 226.36 68.8675 218.728 76.2908 211.659C80.595 207.53 83.9011 205.403 86.2092 205.403C87.6439 205.403 88.8291 205.966 89.8896 207.155C90.7629 208.219 91.1996 209.345 91.1996 210.596C91.1996 212.097 90.451 214.787 88.8915 218.603C86.2715 225.297 83.7764 232.491 81.3435 240.185C79.285 246.941 77.9126 252.134 77.1641 255.762C78.1621 255.762 78.786 255.762 79.0979 255.7C80.6574 255.637 81.9673 255.637 83.0278 255.637C86.2092 255.637 87.7687 256.826 87.7687 259.265C87.7687 260.329 87.4568 261.33 86.7706 262.331C86.0844 263.332 85.3359 263.957 84.4625 264.145C84.1506 264.27 83.2149 264.332 81.7802 264.332C78.6612 264.332 76.3531 264.52 74.856 264.895C73.546 268.774 71.4875 278.721 68.618 294.673C67.1209 305.245 66.4347 311.751 66.4971 314.191C66.4971 318.132 65.3119 320.071 63.0038 320.071C61.1324 320.071 59.6977 319.133 58.6996 317.193C57.951 315.88 57.5768 314.128 57.5768 311.876C57.5768 304.307 58.8867 294.172 61.5691 281.411C62.879 274.905 63.9395 269.963 64.5633 266.522ZM66.8714 257.701C67.3704 256.137 68.618 251.884 70.6142 245.002C71.1132 243.188 72.3608 239.622 74.357 234.242C76.3531 228.737 77.975 224.296 79.1602 220.98C75.6046 223.357 72.0489 226.423 68.3685 230.301C55.5182 244.189 46.4107 255.512 41.1708 264.332C43.167 263.832 47.5336 262.581 54.1459 260.642C56.0796 260.079 60.3215 259.14 66.8714 257.701Z" fill="white"/>
<path d="M91.9482 284.851C97.3128 279.096 103.426 273.528 110.413 268.023C112.908 266.084 115.59 264.207 118.397 262.518C119.832 261.705 120.705 261.267 121.08 261.267C121.891 261.267 122.701 261.893 123.512 263.081C124.011 263.707 124.261 264.332 124.261 264.895C124.261 265.896 123.201 267.21 121.142 268.899C115.59 273.341 112.783 276.656 112.783 278.908C112.783 280.159 113.469 280.785 114.904 280.785C117.274 280.785 121.267 278.846 127.006 274.967C128.004 274.342 128.815 273.966 129.439 273.966C129.875 273.966 130.312 274.154 130.749 274.592C131.248 275.092 131.497 275.593 131.497 276.156C131.497 277.782 129.189 280.285 124.635 283.725C119.832 287.353 115.278 289.105 110.974 289.105C109.227 289.105 107.606 288.667 106.171 287.729C104.923 286.978 104.299 285.602 104.299 283.6C104.299 282.224 104.861 280.66 106.046 278.908C101.742 281.974 96.689 287.228 90.8253 294.673C87.4568 299.239 84.0883 304.932 80.7821 311.626C79.5345 314.128 77.975 315.379 76.1036 315.379C74.1074 315.379 73.1094 314.441 73.1094 312.502C73.1094 310.625 74.6689 305.683 77.8503 297.613C82.5288 285.602 87.4568 276.281 92.572 269.65C95.7533 265.521 98.3733 263.519 100.494 263.519C101.18 263.519 101.867 263.707 102.428 264.145C103.114 264.708 103.488 265.396 103.488 266.209C103.488 267.022 102.927 268.148 101.867 269.65C101.679 269.9 100.182 271.777 97.5624 275.155C95.1295 278.47 93.2581 281.661 91.9482 284.851Z" fill="white"/>
<path d="M153.954 259.015C150.398 264.52 147.154 270.713 144.16 277.532C139.856 287.291 137.673 294.548 137.673 299.365C137.673 300.741 137.985 301.742 138.546 302.492C139.107 303.18 139.981 303.556 141.104 303.556C143.848 303.556 147.154 300.991 151.022 295.861C153.455 292.671 155.638 289.543 157.572 286.353C158.632 284.538 159.755 283.663 160.94 283.663C161.627 283.663 162.25 283.913 162.749 284.413C163.186 284.914 163.373 285.414 163.373 285.915C163.373 287.917 160.753 292.421 155.451 299.427C149.151 307.872 143.349 312.064 138.109 312.064C135.302 312.064 132.994 310.75 131.185 308.185C130.062 306.559 129.438 304.244 129.438 301.241C129.438 294.61 131.372 286.916 135.177 278.095C136.113 275.906 138.671 270.651 142.85 262.268C141.353 262.643 140.23 262.831 139.482 262.831C138.359 262.831 137.298 262.581 136.487 262.018C135.302 261.267 134.678 260.266 134.678 259.14C134.678 257.764 135.489 256.7 137.049 255.887C137.486 255.7 139.482 255.324 143.1 254.824C144.41 254.636 146.343 254.073 148.839 253.26C150.772 249.819 153.829 245.127 158.133 239.247C160.504 235.994 162.188 233.867 163.124 232.866C164.434 231.49 165.557 230.802 166.555 230.802C167.241 230.802 167.989 231.177 168.676 231.928C169.299 232.616 169.674 233.367 169.674 234.055C169.674 235.493 168.177 238.309 165.12 242.5C163.124 245.252 161.627 247.442 160.629 249.131C166.679 247.504 170.984 246.691 173.604 246.691C176.598 246.691 178.095 247.942 178.095 250.445C178.095 251.696 177.596 252.634 176.535 253.26C175.974 253.573 174.602 253.885 172.294 254.073C171.358 254.01 167.241 255.074 159.942 257.201C157.884 257.701 155.888 258.327 153.954 259.015Z" fill="white"/>
<path d="M231.305 263.895C236.732 252.447 241.91 242.5 246.775 234.055C251.454 225.86 254.635 220.667 256.32 218.54C258.191 216.163 259.938 215.037 261.559 215.037C262.433 215.037 263.244 215.413 263.93 216.101C264.554 216.789 264.928 217.602 264.928 218.415C264.928 219.666 263.992 221.793 262.121 224.734C254.199 237.495 246.963 250.507 240.35 263.644C232.74 278.971 228.935 290.481 228.935 298.176C228.935 301.304 229.559 303.743 230.744 305.558C230.931 305.933 231.929 306.809 233.676 308.185C233.988 308.435 234.175 308.998 234.175 309.812C234.175 310.875 233.738 311.876 232.927 312.814C232.054 313.69 231.118 314.191 230.12 314.191C228.872 314.191 227.5 313.44 225.94 311.876C223.757 309.686 222.447 307.184 222.011 304.307C221.823 303.118 221.636 300.866 221.449 297.613C215.71 307.935 210.283 313.127 205.106 313.127C202.111 313.127 199.741 311.438 197.932 308.06C196.747 305.808 196.123 303.306 196.123 300.428C196.123 291.92 199.242 283.35 205.417 274.717C211.593 266.209 218.205 261.955 225.254 261.955C227.25 261.893 229.247 262.581 231.305 263.895ZM228.56 270.651C227.063 269.65 225.816 269.149 224.693 269.149C220.139 269.149 215.773 271.964 211.718 277.595C206.353 284.914 203.608 291.983 203.608 298.801C203.608 299.615 203.796 300.365 204.107 301.116C204.731 302.492 205.729 303.18 207.039 303.18C208.973 303.18 211.281 301.304 213.963 297.613C217.644 292.671 221.012 286.853 224.069 280.159C225.13 277.845 226.252 275.593 227.25 273.278L227.999 271.714L228.56 270.651Z" fill="white"/>
<path d="M244.28 296.049V297.55C244.28 298.739 244.592 299.802 245.154 300.678C246.526 302.68 248.772 303.681 251.828 303.681C258.628 303.681 266.488 298.426 275.47 287.917C277.03 286.102 278.402 285.227 279.463 285.227C280.086 285.227 280.585 285.539 281.084 286.102C281.396 286.54 281.583 286.978 281.583 287.353C281.583 289.48 278.963 293.109 273.724 298.176C269.606 302.18 265.302 305.433 260.624 307.935C256.008 310.437 251.703 311.688 247.711 311.688C243.594 311.688 240.413 310.249 238.042 307.434C236.483 305.495 235.672 302.805 235.672 299.427C235.672 290.169 239.976 281.16 248.647 272.277C255.696 265.083 261.809 261.455 267.049 261.455C268.484 261.455 269.731 261.893 270.916 262.768C272.351 263.895 273.037 265.396 273.037 267.273C273.037 270.15 271.727 273.716 269.045 277.907C263.68 286.665 255.384 292.733 244.28 296.049ZM246.089 289.668C249.894 288.354 252.889 286.853 255.072 285.227C258.877 282.286 261.934 278.971 264.117 275.217C264.928 273.904 265.365 272.715 265.365 271.714C265.365 270.651 264.866 270.088 263.805 270.088C262.37 270.088 260.374 271.151 257.754 273.278C253.138 277.032 249.208 282.474 246.089 289.668Z" fill="white"/>
<path d="M358.685 299.365C355.005 301.929 352.011 303.869 349.765 305.12C344.65 308.06 340.221 309.561 336.415 309.561C331.987 309.561 328.368 307.372 325.437 303.055C323.378 299.928 322.318 296.362 322.318 292.296C322.318 281.035 327.246 267.898 337.039 252.947C346.147 239.122 356.689 227.236 368.666 217.227C378.584 209.032 387.006 204.903 393.992 204.903C397.548 204.903 400.417 206.404 402.663 209.407C404.347 211.722 405.221 214.412 405.221 217.54C405.221 227.048 400.605 236.932 391.31 247.129C384.199 254.949 378.834 258.827 375.216 258.827C374.405 258.827 373.594 258.515 372.783 257.826C371.91 257.076 371.473 256.137 371.473 255.136C371.473 253.76 372.658 252.134 375.091 250.132C381.267 245.19 386.257 240.06 390.125 234.868C396.176 226.861 399.17 220.48 399.17 215.788C399.17 214.537 398.733 213.536 397.797 212.785C396.924 212.097 395.864 211.722 394.616 211.722C391.747 211.722 387.879 213.411 383.013 216.789C372.908 223.92 362.865 233.992 353.009 246.879C346.646 255.262 341.344 263.895 337.039 272.778C333.359 280.597 331.487 286.978 331.487 291.983C331.487 293.922 332.111 295.799 333.359 297.55C335.043 299.928 337.226 301.054 339.971 301.054C343.839 301.054 348.58 298.989 354.256 294.923C361.368 289.793 366.42 285.664 369.477 282.537C372.034 279.909 373.968 278.595 375.278 278.595C376.214 278.595 376.963 278.971 377.586 279.659C378.335 280.597 378.709 281.723 378.709 283.1C378.709 284.601 377.773 286.665 375.902 289.168C373.968 291.67 371.036 296.362 367.044 303.18C362.49 311 358.249 319.445 354.381 328.579C350.95 336.586 348.892 342.029 348.143 344.906C347.519 347.283 346.833 349.035 346.084 350.098C345.273 351.162 344.026 351.725 342.342 351.725C340.907 351.725 339.846 351.225 339.098 350.224C338.474 349.348 338.1 348.284 338.1 347.096C338.1 342.466 340.782 334.397 346.209 323.011C347.082 321.197 349.827 315.942 354.443 307.247C355.441 305.558 356.876 302.868 358.685 299.365Z" fill="white"/>
<path d="M394.928 284.851C400.293 279.096 406.406 273.528 413.392 268.023C415.888 266.084 418.57 264.207 421.377 262.518C422.812 261.705 423.685 261.267 424.059 261.267C424.87 261.267 425.681 261.893 426.492 263.081C426.991 263.707 427.241 264.332 427.241 264.895C427.241 265.896 426.18 267.21 424.122 268.899C418.57 273.341 415.763 276.656 415.763 278.908C415.763 280.159 416.449 280.785 417.884 280.785C420.254 280.785 424.247 278.846 429.986 274.967C430.984 274.342 431.795 273.966 432.418 273.966C432.855 273.966 433.292 274.154 433.728 274.592C434.227 275.092 434.477 275.593 434.477 276.156C434.477 277.782 432.169 280.285 427.615 283.725C422.812 287.353 418.258 289.105 413.954 289.105C412.207 289.105 410.585 288.667 409.151 287.729C407.903 286.978 407.279 285.602 407.279 283.6C407.279 282.224 407.841 280.66 409.026 278.908C404.722 281.974 399.669 287.228 393.805 294.673C390.437 299.239 387.068 304.932 383.762 311.626C382.514 314.128 380.955 315.379 379.083 315.379C377.087 315.379 376.089 314.441 376.089 312.502C376.089 310.625 377.649 305.683 380.83 297.613C385.509 285.602 390.437 276.281 395.552 269.65C398.733 265.521 401.353 263.519 403.474 263.519C404.16 263.519 404.846 263.707 405.408 264.145C406.094 264.708 406.468 265.396 406.468 266.209C406.468 267.022 405.907 268.148 404.846 269.65C404.597 269.9 403.162 271.777 400.542 275.155C398.109 278.47 396.238 281.661 394.928 284.851Z" fill="white"/>
<path d="M451.07 298.238C449.261 301.429 447.514 304.056 445.768 306.246C442.337 310.5 438.906 312.627 435.537 312.627C432.606 312.627 430.297 311.25 428.676 308.435C427.615 306.621 427.116 304.494 427.116 302.054C427.116 295.986 429.05 289.293 432.855 281.974C437.097 273.841 442.212 267.585 448.201 263.206C452.131 260.391 455.936 258.952 459.554 258.952C461.862 258.952 463.733 259.641 465.293 261.079C466.603 262.331 467.227 263.769 467.227 265.333C467.227 266.522 466.79 268.211 465.854 270.338C466.665 271.464 467.102 272.527 467.102 273.341C467.102 274.467 466.353 276.343 464.794 278.971C463.234 281.661 461.612 285.227 460.053 289.606C458.369 294.297 457.495 298.051 457.495 300.928C457.495 303.243 458.181 305.12 459.554 306.559C459.928 306.934 461.051 307.56 462.922 308.435C464.295 309.061 464.981 310.249 464.981 311.876C464.981 312.939 464.607 313.753 463.858 314.441C463.047 315.129 462.111 315.504 460.988 315.504C458.057 315.504 455.499 314.191 453.378 311.563C451.631 309.436 450.758 306.746 450.758 303.556C450.696 302.555 450.821 300.803 451.07 298.238ZM461.238 271.276C460.614 270.088 459.866 269.212 459.117 268.586C458.369 268.023 457.558 267.711 456.684 267.711C452.567 267.711 448.076 271.339 443.21 278.595C437.845 286.603 435.226 293.422 435.226 298.989C435.226 300.365 435.475 301.366 435.974 302.117C436.473 302.805 437.284 303.18 438.282 303.18C440.902 303.18 443.959 300.365 447.452 294.798C449.386 291.733 451.819 287.228 454.75 281.285C456.684 277.407 458.057 274.842 458.93 273.591C459.304 273.028 460.115 272.215 461.238 271.276Z" fill="white"/>
<path d="M495.734 260.954C500.038 260.954 502.222 263.206 502.222 267.773C502.222 271.777 500.662 275.78 497.543 279.847C495.173 282.912 493.052 284.413 491.243 284.413C489.746 284.413 488.935 283.538 488.935 281.786C488.935 280.848 489.122 280.097 489.559 279.596C489.746 279.409 490.37 278.721 491.492 277.72C492.49 276.781 493.489 275.405 494.487 273.528C495.173 272.277 495.547 271.276 495.547 270.526C495.547 269.65 495.048 269.212 494.05 269.212C492.927 269.212 491.181 270.088 488.81 271.902C485.13 274.779 481.387 279.346 477.706 285.539C473.901 291.983 471.967 297.05 471.967 300.803C471.967 301.992 472.342 303.055 473.028 303.994C474.088 305.433 475.461 306.121 477.207 306.121C480.638 306.121 484.693 303.994 489.372 299.74C493.364 296.049 496.67 292.421 499.415 288.73C500.849 286.728 502.035 285.727 503.095 285.727C503.719 285.727 504.218 285.977 504.717 286.54C505.154 287.103 505.341 287.604 505.341 288.167C505.341 290.169 502.721 294.11 497.606 299.99C489.371 309.186 481.886 313.753 475.211 313.753C471.156 313.753 468.1 312.314 465.979 309.436C464.482 307.309 463.671 304.807 463.671 301.867C463.671 296.174 466.041 289.606 470.72 282.099C475.274 274.967 480.451 269.149 486.44 264.833C490.058 262.205 493.114 260.954 495.734 260.954Z" fill="white"/>
<path d="M514.136 296.049V297.55C514.136 298.739 514.448 299.802 515.01 300.678C516.382 302.68 518.628 303.681 521.684 303.681C528.484 303.681 536.344 298.426 545.326 287.917C546.886 286.102 548.258 285.227 549.319 285.227C549.942 285.227 550.441 285.539 550.941 286.102C551.252 286.54 551.44 286.978 551.44 287.353C551.44 289.48 548.82 293.109 543.58 298.176C539.463 302.18 535.158 305.433 530.48 307.935C525.864 310.437 521.56 311.688 517.567 311.688C513.45 311.688 510.269 310.249 507.898 307.434C506.339 305.495 505.528 302.805 505.528 299.427C505.528 290.169 509.832 281.16 518.503 272.277C525.552 265.083 531.665 261.455 536.905 261.455C538.34 261.455 539.587 261.893 540.773 262.768C542.207 263.895 542.893 265.396 542.893 267.273C542.893 270.15 541.583 273.716 538.901 277.907C533.474 286.665 525.178 292.733 514.136 296.049ZM515.883 289.668C519.688 288.354 522.682 286.853 524.866 285.227C528.671 282.286 531.727 278.971 533.911 275.217C534.722 273.904 535.158 272.715 535.158 271.714C535.158 270.651 534.659 270.088 533.599 270.088C532.164 270.088 530.168 271.151 527.548 273.278C522.932 277.032 519.002 282.474 515.883 289.668Z" fill="white"/>
<path d="M224.731 149.918L290.059 81.1677L298.639 89.7722L229.319 154.008L224.731 149.918Z" fill="white"/>
<path d="M300.338 88.4942L291.588 79.8046L312.146 58.0804L322.34 68.3887L300.338 88.4942Z" fill="white"/>
<path d="M323.53 66.4293L314.355 57.4841C314.355 57.4841 314.355 43.768 343.323 37.2082C343.323 37.2082 339.585 60.1251 323.53 66.4293Z" fill="white"/>
<path d="M327.183 156.308L338.226 145.148L295.326 102.125L283.518 112.859L327.183 156.308Z" fill="white"/>
<path d="M267.632 96.9284L278.845 85.5978L255.993 62.6809L244.185 74.5227L267.632 96.9284Z" fill="white"/>
<path d="M223.032 92.328L227.11 88.1535L196.952 57.9101L192.959 61.9994L223.032 92.328Z" fill="white"/>
<path d="M269.076 46.1534L273.154 41.979L242.996 11.7356L239.003 15.7396L269.076 46.1534Z" fill="white"/>
<path d="M228.384 84.405L201.539 57.5693L239.258 19.7437L266.018 46.5794L228.384 84.405Z" fill="white"/>
<path d="M269.67 57.4841L284.707 42.405L247.158 4.83498C247.158 4.83498 295.496 -14.3334 333.384 23.6626L284.622 72.5632L269.67 57.4841Z" fill="white"/>
<path d="M240.362 86.9608L222.947 104.425L191.005 72.3928C191.005 72.3928 182.68 113.371 213.942 144.722L255.993 102.551L240.362 86.9608Z" fill="white"/>
<path d="M239.003 162.697L275.617 125.979L312.061 162.527C312.061 162.612 276.382 181.099 239.003 162.697Z" fill="white"/>
<path d="M346.042 132.454L308.663 94.969L353.178 52.117C353.178 52.117 372.631 93.5207 346.042 132.454Z" fill="white"/>
</svg>
